<svg width="612" height="269" viewBox="0 0 612 269" fill="none" xmlns="http://www.w3.org/2000/svg">
<g clip-path="url(#clip0_27_8)" filter="url(#filter0_d_27_8)">
<path d="M453.097 162.491L449.793 166.369C443.159 173.266 434.707 177.962 425.505 179.865C416.303 181.768 406.765 180.791 398.096 177.059C389.428 173.326 382.02 167.006 376.807 158.897C371.595 150.787 368.812 141.253 368.812 131.5C368.812 121.747 371.595 112.213 376.807 104.103C382.02 95.9941 389.428 89.6736 398.096 85.9412C406.765 82.2089 416.303 81.2323 425.505 83.135C434.707 85.0378 443.159 89.7343 449.793 96.6308L509.207 166.369C515.841 173.266 524.293 177.962 533.495 179.865C542.697 181.768 552.235 180.791 560.904 177.059C569.572 173.326 576.98 167.006 582.193 158.897C587.405 150.787 590.187 141.253 590.187 131.5C590.187 121.747 587.405 112.213 582.193 104.103C576.98 95.9941 569.572 89.6736 560.904 85.9412C552.235 82.2089 542.697 81.2323 533.495 83.135" stroke="url(#paint0_linear_27_8)" stroke-width="30" stroke-linecap="round" stroke-linejoin="round"/>
<ellipse cx="501.242" cy="82.1875" rx="14.8242" ry="14.3828" fill="#3474F1"/>
</g>
<path d="M7.8 136V118.4C7.8 99.8667 12.6667 85.4 22.4 75C32.1333 64.6 45.6 59.4 62.8 59.4C80 59.4 93.8 64.6 104.2 75C111.533 82.3333 115.2 93.3333 115.2 108H89.2C89.2 92.1333 80.7333 84.2 63.8 84.2C58.7333 84.2 54.4 85.2 50.8 87.2C47.3333 89.0667 44.7333 91.2667 43 93.8C41.2667 96.3333 39.9333 100.067 39 105C38.0667 109.933 37.5333 114.067 37.4 117.4C37.2667 120.733 37.2 125.2 37.2 130.8C37.2 136.4 37.2 140.2 37.2 142.2C37.3333 144.067 37.5333 147.2 37.8 151.6C38.2 155.867 38.7333 158.933 39.4 160.8C40.2 162.667 41.2667 165.067 42.6 168C44.0667 170.933 45.8667 173 48 174.2C53.4667 177.667 59.6667 179.4 66.6 179.4C78.2 179.4 86.4 174.467 91.2 164.6V155H74V131.8H115V174.8C110.867 184.533 104.333 191.867 95.4 196.8C86.4667 201.733 76.3333 204.2 65 204.2C44.8667 204.2 30.2667 198.6 21.2 187.4C12.2667 176.067 7.8 158.933 7.8 136ZM237.944 203H208.944L200.944 178.4H153.144L145.344 203H116.344L161.944 72.6C163.944 68.0667 166.144 64.9333 168.544 63.2C171.077 61.4667 174.144 60.6 177.744 60.6C181.344 60.6 184.21 61.4 186.344 63C188.61 64.6 190.61 67.8 192.344 72.6L237.944 203ZM194.544 155L177.744 98.6L160.144 155H194.544ZM333.283 73C341.549 81.1333 345.683 93.1333 345.683 109C345.683 124.867 341.549 136.933 333.283 145.2C325.149 153.333 313.616 157.4 298.683 157.4H271.283V203H243.483V60.6H298.683C313.616 60.6 325.149 64.7333 333.283 73ZM317.883 109C317.883 93.2667 311.016 85.4 297.283 85.4H271.283V132.4H297.283C303.949 132.4 309.016 130.6 312.483 127C316.083 123.4 317.883 117.4 317.883 109Z" fill="#0C1441"/>
<defs>
<filter id="filter0_d_27_8" x="349" y="-1" width="263" height="273" filterUnits="userSpaceOnUse" color-interpolation-filters="sRGB">
<feFlood flood-opacity="0" result="BackgroundImageFix"/>
<feColorMatrix in="SourceAlpha" type="matrix" values="0 0 0 0 0 0 0 0 0 0 0 0 0 0 0 0 0 0 127 0" result="hardAlpha"/>
<feOffset dx="1" dy="4"/>
<feGaussianBlur stdDeviation="2.5"/>
<feColorMatrix type="matrix" values="0 0 0 0 0.788333 0 0 0 0 0.788333 0 0 0 0 0.788333 0 0 0 1 0"/>
<feBlend mode="normal" in2="BackgroundImageFix" result="effect1_dropShadow_27_8"/>
<feBlend mode="normal" in="SourceGraphic" in2="effect1_dropShadow_27_8" result="shape"/>
</filter>
<linearGradient id="paint0_linear_27_8" x1="479.449" y1="82.1875" x2="479.559" y2="180.813" gradientUnits="userSpaceOnUse">
<stop stop-color="#6B9CFA"/>
<stop offset="0.5" stop-color="#205FEE"/>
<stop offset="1" stop-color="#0B4AEB"/>
</linearGradient>
<clipPath id="clip0_27_8">
<rect width="253" height="263" fill="white" transform="translate(353)"/>
</clipPath>
</defs>
</svg>
