<svg width="682" height="269" viewBox="0 0 682 269" fill="none" xmlns="http://www.w3.org/2000/svg">
<rect width="682" height="256" fill="white"/>
<g clip-path="url(#clip0_27_8)">
<path d="M500.097 168.491L496.793 172.369C490.159 179.266 481.707 183.962 472.505 185.865C463.303 187.768 453.765 186.791 445.096 183.059C436.428 179.326 429.02 173.006 423.807 164.897C418.595 156.787 415.812 147.253 415.812 137.5C415.812 127.747 418.595 118.213 423.807 110.103C429.02 101.994 436.428 95.6736 445.096 91.9412C453.765 88.2089 463.303 87.2323 472.505 89.135C481.707 91.0378 490.159 95.7343 496.793 102.631L556.207 172.369C562.841 179.266 571.293 183.962 580.495 185.865C589.697 187.768 599.235 186.791 607.904 183.059C616.572 179.326 623.98 173.006 629.193 164.897C634.405 156.787 637.187 147.253 637.187 137.5C637.187 127.747 634.405 118.213 629.193 110.103C623.98 101.994 616.572 95.6736 607.904 91.9412C599.235 88.2089 589.697 87.2323 580.495 89.135" stroke="url(#paint0_linear_27_8)" stroke-width="30" stroke-linecap="round" stroke-linejoin="round"/>
<ellipse cx="548.242" cy="88.1875" rx="14.8242" ry="14.3828" fill="#3474F1"/>
</g>
<path d="M54.8 142V124.4C54.8 105.867 59.6667 91.4 69.4 81C79.1333 70.6 92.6 65.4 109.8 65.4C127 65.4 140.8 70.6 151.2 81C158.533 88.3333 162.2 99.3333 162.2 114H136.2C136.2 98.1333 127.733 90.2 110.8 90.2C105.733 90.2 101.4 91.2 97.8 93.2C94.3333 95.0667 91.7333 97.2667 90 99.8C88.2667 102.333 86.9333 106.067 86 111C85.0667 115.933 84.5333 120.067 84.4 123.4C84.2667 126.733 84.2 131.2 84.2 136.8C84.2 142.4 84.2 146.2 84.2 148.2C84.3333 150.067 84.5333 153.2 84.8 157.6C85.2 161.867 85.7333 164.933 86.4 166.8C87.2 168.667 88.2667 171.067 89.6 174C91.0667 176.933 92.8667 179 95 180.2C100.467 183.667 106.667 185.4 113.6 185.4C125.2 185.4 133.4 180.467 138.2 170.6V161H121V137.8H162V180.8C157.867 190.533 151.333 197.867 142.4 202.8C133.467 207.733 123.333 210.2 112 210.2C91.8667 210.2 77.2667 204.6 68.2 193.4C59.2667 182.067 54.8 164.933 54.8 142ZM284.944 209H255.944L247.944 184.4H200.144L192.344 209H163.344L208.944 78.6C210.944 74.0667 213.144 70.9333 215.544 69.2C218.077 67.4667 221.144 66.6 224.744 66.6C228.344 66.6 231.21 67.4 233.344 69C235.61 70.6 237.61 73.8 239.344 78.6L284.944 209ZM241.544 161L224.744 104.6L207.144 161H241.544ZM380.283 79C388.549 87.1333 392.683 99.1333 392.683 115C392.683 130.867 388.549 142.933 380.283 151.2C372.149 159.333 360.616 163.4 345.683 163.4H318.283V209H290.483V66.6H345.683C360.616 66.6 372.149 70.7333 380.283 79ZM364.883 115C364.883 99.2667 358.016 91.4 344.283 91.4H318.283V138.4H344.283C350.949 138.4 356.016 136.6 359.483 133C363.083 129.4 364.883 123.4 364.883 115Z" fill="#0C1441"/>
<defs>
<linearGradient id="paint0_linear_27_8" x1="526.449" y1="88.1875" x2="526.559" y2="186.813" gradientUnits="userSpaceOnUse">
<stop stop-color="#6B9CFA"/>
<stop offset="0.5" stop-color="#205FEE"/>
<stop offset="1" stop-color="#0B4AEB"/>
</linearGradient>
<clipPath id="clip0_27_8">
<rect width="253" height="263" fill="white" transform="translate(400 6)"/>
</clipPath>
</defs>
</svg>
