<svg width="263" height="263" viewBox="0 0 263 263" fill="none" xmlns="http://www.w3.org/2000/svg">
<g clip-path="url(#clip0_25_4)" filter="url(#filter0_d_25_4)">
<path d="M104.097 162.491L100.793 166.369C94.1591 173.266 85.7066 177.962 76.5046 179.865C67.3026 181.768 57.7645 180.791 49.0965 177.059C40.4284 173.326 33.0197 167.006 27.8072 158.897C22.5947 150.787 19.8125 141.253 19.8125 131.5C19.8125 121.747 22.5947 112.213 27.8072 104.103C33.0197 95.9941 40.4284 89.6736 49.0965 85.9412C57.7645 82.2089 67.3026 81.2323 76.5046 83.135C85.7066 85.0378 94.1591 89.7343 100.793 96.6308L160.207 166.369C166.841 173.266 175.293 177.962 184.495 179.865C193.697 181.768 203.235 180.791 211.904 177.059C220.572 173.326 227.98 167.006 233.193 158.897C238.405 150.787 241.187 141.253 241.187 131.5C241.187 121.747 238.405 112.213 233.193 104.103C227.98 95.9941 220.572 89.6736 211.904 85.9412C203.235 82.2089 193.697 81.2323 184.495 83.135" stroke="url(#paint0_linear_25_4)" stroke-width="30" stroke-linecap="round" stroke-linejoin="round"/>
<ellipse cx="152.242" cy="82.1875" rx="14.8242" ry="14.3828" fill="#3474F1"/>
</g>
<defs>
<filter id="filter0_d_25_4" x="0" y="-1" width="263" height="273" filterUnits="userSpaceOnUse" color-interpolation-filters="sRGB">
<feFlood flood-opacity="0" result="BackgroundImageFix"/>
<feColorMatrix in="SourceAlpha" type="matrix" values="0 0 0 0 0 0 0 0 0 0 0 0 0 0 0 0 0 0 127 0" result="hardAlpha"/>
<feOffset dx="1" dy="4"/>
<feGaussianBlur stdDeviation="2.5"/>
<feColorMatrix type="matrix" values="0 0 0 0 0.788333 0 0 0 0 0.788333 0 0 0 0 0.788333 0 0 0 1 0"/>
<feBlend mode="normal" in2="BackgroundImageFix" result="effect1_dropShadow_25_4"/>
<feBlend mode="normal" in="SourceGraphic" in2="effect1_dropShadow_25_4" result="shape"/>
</filter>
<linearGradient id="paint0_linear_25_4" x1="130.449" y1="82.1875" x2="130.559" y2="180.813" gradientUnits="userSpaceOnUse">
<stop stop-color="#6B9CFA"/>
<stop offset="0.5" stop-color="#205FEE"/>
<stop offset="1" stop-color="#0B4AEB"/>
</linearGradient>
<clipPath id="clip0_25_4">
<rect width="253" height="263" fill="white" transform="translate(4)"/>
</clipPath>
</defs>
</svg>
